<svg id="chemistry" width="24" height="24" viewBox="0 0 24 24" fill="none" xmlns="http://www.w3.org/2000/svg">
<path fill-rule="evenodd" clip-rule="evenodd" d="M9.75 2.25C10.1642 2.25 10.5 2.58579 10.5 3V8.79875C10.4982 9.06201 10.4289 9.32042 10.2986 9.5492L10.29 9.564L4.32839 19.5H19.6716L13.71 9.564L13.7014 9.5492C13.5711 9.32042 13.5018 9.06202 13.5 8.79875L13.5 8.79375L13.5 3C13.5 2.58579 13.8358 2.25 14.25 2.25C14.6642 2.25 15 2.58579 15 3V8.78963C15.0002 8.79472 15.0013 8.79972 15.0035 8.80432L20.9596 18.7312C21.095 18.958 21.168 19.2164 21.1715 19.4804C21.1749 19.7445 21.1086 20.0047 20.9793 20.2349C20.8499 20.4651 20.6621 20.6571 20.4347 20.7914C20.2074 20.9257 19.9487 20.9977 19.6846 21L19.6781 21L4.31537 21C4.05133 20.9977 3.79257 20.9257 3.56524 20.7914C3.33792 20.6571 3.15008 20.4651 3.02072 20.2349C2.89135 20.0047 2.82505 19.7445 2.8285 19.4804C2.83195 19.2164 2.90504 18.958 3.04037 18.7312L3.04125 18.7298L8.99651 8.80432C8.99865 8.79972 8.99984 8.79473 9 8.78965V3C9 2.58579 9.33578 2.25 9.75 2.25Z" fill="black"/>
<path fill-rule="evenodd" clip-rule="evenodd" d="M7.5 3C7.5 2.58579 7.83579 2.25 8.25 2.25H15.75C16.1642 2.25 16.5 2.58579 16.5 3C16.5 3.41421 16.1642 3.75 15.75 3.75H8.25C7.83579 3.75 7.5 3.41421 7.5 3Z" fill="black"/>
<path fill-rule="evenodd" clip-rule="evenodd" d="M11.6646 16.4209C8.72427 14.9553 7.13594 15.4662 6.31378 16.0724C5.98038 16.3182 5.51085 16.2472 5.26504 15.9138C5.01923 15.5804 5.09023 15.1109 5.42363 14.8651C6.8139 13.8401 9.03162 13.4323 12.3346 15.0788L12.3361 15.0796C13.9242 15.8758 15.1143 16.0826 15.9864 16.0236C16.8489 15.9652 17.4543 15.6438 17.8795 15.2819C18.195 15.0135 18.6684 15.0516 18.9368 15.3671C19.2052 15.6826 19.1671 16.1559 18.8516 16.4243C18.2081 16.9719 17.3041 17.4379 16.0877 17.5202C14.8811 17.6018 13.423 17.3024 11.6646 16.4209Z" fill="black"/>
</svg>
