<svg width="24" height="24" viewBox="0 0 24 24" fill="none" xmlns="http://www.w3.org/2000/svg">
<path d="M22.2 19.125C22.0031 19.4679 21.719 19.7526 21.3765 19.9502C21.034 20.1478 20.6454 20.2512 20.25 20.25H15V21.75C15.0004 21.8981 14.9571 22.043 14.8753 22.1664C14.7936 22.2899 14.6771 22.3864 14.5406 22.4437C14.4481 22.4805 14.3495 22.4996 14.25 22.5C14.0508 22.4992 13.8596 22.422 13.7156 22.2844L11.4656 20.025C11.3969 19.956 11.3425 19.8741 11.3055 19.784C11.2685 19.6939 11.2496 19.5974 11.25 19.5C11.2489 19.3005 11.3263 19.1085 11.4656 18.9656L13.7156 16.7156C13.824 16.6139 13.9591 16.5449 14.1051 16.5167C14.2511 16.4885 14.4021 16.5022 14.5406 16.5563C14.6771 16.6136 14.7936 16.7101 14.8753 16.8336C14.9571 16.957 15.0004 17.1019 15 17.25V18.75H20.25C20.3814 18.7505 20.5105 18.716 20.6242 18.6501C20.7379 18.5842 20.832 18.4893 20.8969 18.375C20.9646 18.2616 21.0003 18.132 21.0003 18C21.0003 17.868 20.9646 17.7384 20.8969 17.625L18.6469 13.7438C18.5474 13.5709 18.5207 13.3657 18.5725 13.1732C18.6244 12.9807 18.7506 12.8166 18.9234 12.7172C19.0962 12.6177 19.3015 12.591 19.494 12.6429C19.6865 12.6947 19.8505 12.8209 19.95 12.9937L22.1906 16.875C22.3923 17.2153 22.4995 17.6032 22.5012 17.9987C22.5028 18.3943 22.3988 18.7831 22.2 19.125ZM8.24998 18.75H3.74998C3.61859 18.7505 3.48943 18.716 3.37575 18.6501C3.26207 18.5842 3.16798 18.4893 3.10311 18.375C3.03539 18.2616 2.99963 18.132 2.99963 18C2.99963 17.868 3.03539 17.7384 3.10311 17.625L5.72811 13.0969L7.03123 13.8469C7.14499 13.9136 7.27434 13.9492 7.40623 13.95C7.56984 13.9487 7.72829 13.8926 7.85623 13.7906C7.97433 13.7009 8.06318 13.5783 8.11157 13.4381C8.15996 13.2979 8.16572 13.1466 8.12811 13.0031L7.30311 9.92812C7.25007 9.73889 7.12573 9.57759 6.95623 9.47812C6.87119 9.42699 6.77651 9.39393 6.67811 9.38103C6.57972 9.36812 6.47972 9.37565 6.38436 9.40312L3.30936 10.2188C3.16692 10.2582 3.03931 10.3389 2.94257 10.4506C2.84583 10.5624 2.78426 10.7002 2.76561 10.8469C2.74414 10.9942 2.76754 11.1445 2.83276 11.2783C2.89798 11.412 3.00199 11.5231 3.13124 11.5969L4.42498 12.3469L1.80936 16.875C1.60917 17.216 1.50279 17.6039 1.501 17.9993C1.49921 18.3947 1.60209 18.7835 1.79919 19.1263C1.99629 19.4691 2.28058 19.7536 2.62321 19.9509C2.96583 20.1483 3.35458 20.2515 3.74998 20.25H8.24998C8.4489 20.25 8.63966 20.171 8.78031 20.0303C8.92097 19.8897 8.99998 19.6989 8.99998 19.5C8.99998 19.3011 8.92097 19.1103 8.78031 18.9697C8.63966 18.829 8.4489 18.75 8.24998 18.75ZM12 3C12.1316 2.99852 12.2611 3.03257 12.375 3.09857C12.4888 3.16457 12.5828 3.26007 12.6469 3.375L15.2719 7.90312L13.9781 8.65312C13.8472 8.72474 13.7411 8.83421 13.6735 8.96719C13.6059 9.10017 13.58 9.25046 13.5992 9.3984C13.6185 9.54632 13.682 9.68499 13.7814 9.79624C13.8807 9.90749 14.0114 9.98614 14.1562 10.0219L17.2312 10.8469L17.4187 10.875C17.5842 10.8751 17.7453 10.8211 17.8773 10.7213C18.0093 10.6214 18.105 10.4812 18.15 10.3219L18.975 7.24688C19.0133 7.10204 19.008 6.9491 18.9596 6.80731C18.9112 6.66551 18.822 6.54119 18.7031 6.45C18.5844 6.36029 18.4416 6.30793 18.2931 6.29958C18.1445 6.29124 17.9968 6.32728 17.8687 6.40313L16.5656 7.15313L13.95 2.625C13.7527 2.28228 13.4686 1.99761 13.1262 1.79966C12.7839 1.60172 12.3954 1.4975 12 1.4975C11.6045 1.4975 11.2161 1.60172 10.8737 1.79966C10.5314 1.99761 10.2473 2.28228 10.05 2.625L7.80936 6.50625C7.75066 6.5914 7.71021 6.68778 7.69055 6.78932C7.67089 6.89086 7.67244 6.99537 7.69511 7.09628C7.71777 7.19719 7.76107 7.29232 7.82227 7.37569C7.88346 7.45907 7.96125 7.52888 8.05072 7.58076C8.1402 7.63263 8.23944 7.66543 8.3422 7.67711C8.44497 7.68878 8.54904 7.67908 8.64787 7.6486C8.7467 7.61813 8.83816 7.56754 8.91651 7.50002C8.99485 7.4325 9.05838 7.3495 9.10311 7.25625L11.3531 3.375C11.4172 3.26007 11.5111 3.16457 11.625 3.09857C11.7388 3.03257 11.8684 2.99852 12 3Z" fill="black"/>
</svg>
